<svg xmlns="http://www.w3.org/2000/svg" width="410" height="404" viewBox="0 0 410 404"><defs><linearGradient id="a" x1="7.855%" x2="57.636%" y1="8.873%" y2="78.896%"><stop stop-color="#41D1FF" offset="0%"/><stop stop-color="#BD34FE" offset="100%"/></linearGradient><linearGradient id="b" x1="43.376%" x2="50.316%" y1="2.241%" y2="89.03%"><stop stop-color="#FFEA83" offset="0%"/><stop stop-color="#FFDD35" offset="8.333%"/><stop stop-color="#FFA800" offset="100%"/></linearGradient></defs><path fill="url(#a)" d="M399.641 79.995L215.643 393.524c-5.93 10.189-20.943 10.233-26.927.08L10.67 79.997c-6.278-10.422 2.237-23.62 13.69-21.829l176.482 27.774a15 15 0 0 0 4.753-.004l170.365-27.762c11.42-1.861 20.009 11.182 13.797 21.616z"/><path fill="url(#b)" d="M292.965 1.574L156.431 28.977a7.5 7.5 0 0 0-6.026 8.888l32.776 164.123a7.5 7.5 0 0 0 13.423 3.023l24.493-33.432c2.418-3.304 7.95-2.19 8.774 1.812l13.273 63.022a7.5 7.5 0 0 0 13.33 3.017l88.139-157.38c3.107-5.555-1.75-12.18-7.953-11.04l-86.786 15.9a7.5 7.5 0 0 1-8.716-10.03l23.899-56.59c2.554-6.048-2.548-12.584-8.736-11.386z"/></svg>